<?xml version="1.0" encoding="UTF-8"?><svg id="Layer_2" xmlns="http://www.w3.org/2000/svg" viewBox="0 0 886 660"><defs><style>.cls-1{fill:#ffead4;}.cls-2{fill:#f8ab3c;}.cls-3{isolation:isolate;}.cls-4{fill:#b72515;}.cls-5{fill:#cb8428;fill-rule:evenodd;}</style></defs><g id="Layer_1-2"><g><g><g class="cls-3"><path class="cls-2" d="M443,547.5c-107.29,0-207.45-13.55-282.04-38.14-87.97-29.01-134.46-71.75-134.46-123.61s11.08-99.84,32.93-146.11c21.06-44.59,51.18-84.61,89.52-118.96,38.25-34.26,82.78-61.15,132.33-79.93,51.24-19.41,105.65-29.25,161.72-29.25s110.48,9.84,161.72,29.25c49.56,18.77,94.08,45.67,132.33,79.93,38.34,34.34,68.46,74.37,89.52,118.96,21.85,46.27,32.93,95.43,32.93,146.11s-46.5,94.6-134.46,123.61c-74.58,24.6-174.75,38.14-282.04,38.14Z"/><path class="cls-1" d="M443,23c223.68,0,405,162.41,405,362.75,0,100.17-202.5,150.25-405,150.25S38,485.92,38,385.75C38,185.41,219.32,23,443,23m0-23c-57.47,0-113.25,10.09-165.79,30-50.89,19.28-96.62,46.9-135.93,82.12-39.49,35.37-70.53,76.63-92.25,122.61-22.58,47.82-34.03,98.63-34.03,151.02,0,39.96,24.7,95.73,142.36,134.53,75.72,24.97,177.16,38.72,285.64,38.72s209.92-13.75,285.64-38.72c117.66-38.8,142.36-94.58,142.36-134.53,0-52.39-11.45-103.2-34.03-151.02-21.72-45.99-52.75-87.24-92.25-122.61-39.31-35.21-85.05-62.84-135.93-82.12C556.25,10.09,500.47,0,443,0h0Z"/></g><g><rect class="cls-2" x="54.5" y="335.5" width="777" height="313" rx="110.29" ry="110.29"/><path class="cls-1" d="M721.21,347c54.56,0,98.79,44.23,98.79,98.79v92.41c0,54.56-44.23,98.79-98.79,98.79H164.79c-54.56,0-98.79-44.23-98.79-98.79v-92.41c0-54.56,44.23-98.79,98.79-98.79H721.21m0-23H164.79c-32.53,0-63.12,12.67-86.12,35.67-23,23-35.67,53.59-35.67,86.12v92.41c0,32.53,12.67,63.12,35.67,86.12,23,23,53.59,35.67,86.12,35.67H721.21c32.53,0,63.12-12.67,86.12-35.67,23-23,35.67-53.59,35.67-86.12v-92.41c0-32.53-12.67-63.12-35.67-86.12-23-23-53.59-35.67-86.12-35.67h0Z"/></g><g><g><path class="cls-4" d="M23,552.35c-2.77,0-5.47-1-7.58-2.86-2.49-2.18-3.92-5.33-3.92-8.64V217.21c0-3.29,1.41-6.43,3.88-8.61,2.11-1.87,4.83-2.89,7.62-2.89,.47,0,.93,.03,1.4,.09l420,51.61c5.77,.71,10.1,5.6,10.1,11.41v216.92c0,5.77-4.28,10.65-10,11.4L24.5,552.25c-.5,.07-1,.1-1.5,.1Z"/><path class="cls-1" d="M23,217.21l420,51.61v216.92L23,540.85V217.21m0-23c-5.58,0-11.01,2.03-15.24,5.77-4.93,4.37-7.76,10.64-7.76,17.23v323.63c0,6.62,2.85,12.92,7.83,17.29,4.22,3.7,9.62,5.71,15.17,5.71,1,0,1.99-.06,2.99-.2l420-55.1c11.45-1.5,20.01-11.26,20.01-22.8v-216.92c0-11.62-8.66-21.41-20.2-22.83L25.8,194.39c-.94-.11-1.87-.17-2.81-.17h0Z"/></g><g><path class="cls-4" d="M863,552.35c-.5,0-1-.03-1.5-.1l-420-55.11c-5.72-.75-10-5.63-10-11.4v-216.92c0-5.81,4.33-10.71,10.1-11.41l420-51.61c.47-.06,.94-.09,1.4-.09,2.79,0,5.51,1.02,7.62,2.89,2.47,2.18,3.88,5.32,3.88,8.61v323.63c0,3.31-1.43,6.46-3.92,8.64-2.11,1.85-4.81,2.86-7.58,2.86Z"/><path class="cls-1" d="M863,217.21v323.63l-420-55.1v-216.92l420-51.61m0-23c-.93,0-1.87,.06-2.81,.17l-420,51.61c-11.53,1.42-20.2,11.21-20.2,22.83v216.92c0,11.55,8.56,21.3,20.01,22.8l420,55.1c1,.13,2,.2,2.99,.2,5.55,0,10.95-2.01,15.17-5.71,4.98-4.37,7.83-10.67,7.83-17.29V217.21c0-6.59-2.83-12.86-7.76-17.23-4.23-3.74-9.66-5.77-15.24-5.77h0Z"/></g></g></g><g class="cls-3"><path class="cls-2" d="M848.65,385.01c0,200.34-810,200.34-810,0S219.97,22.26,443.65,22.26s405,162.41,405,362.75Z"/></g><rect class="cls-2" x="66.65" y="346.26" width="754" height="290" rx="98.79" ry="98.79"/><path class="cls-5" d="M443.13,217.26c229.99,0,416.02,42.74,416.02,95.45s-186.03,94.55-416.02,94.55S28.15,365.44,28.15,312.72s186.03-95.45,414.98-95.45Z"/><path class="cls-5" d="M443.13,327.74c228.05,0,412.51,48.7,412.51,108.78s-184.46,107.75-412.51,107.75S31.65,496.6,31.65,436.52s184.46-108.78,411.49-108.78Z"/><g><polygon class="cls-4" points="443.65 485.01 23.65 540.11 23.65 216.48 443.65 268.08 443.65 485.01"/><polygon class="cls-4" points="443.65 485.01 863.65 540.11 863.65 216.48 443.65 268.08 443.65 485.01"/></g><g id="Perspective_Text"><g><path class="cls-1" d="M39.01,419.07v-4.49s22.01-.71,22.01-.71v3.4c0,25.13,3.97,32.02,21.41,30.96,11.97-.73,14.89-6.51,14.89-21.35,0-14.84-1.39-20.08-14.6-25.05l-17-6.71c-18.98-7.23-27.17-29.61-27.17-65.57,0-35.27,11.34-69.17,39.46-66.64s37.62,35.54,37.62,78.73v2.6s-20.26-.5-20.26-.5v-3.63c0-23.12-4.05-30.93-18.08-31.67-12.45-.66-16.41,5.59-16.41,19.85,0,14.61,2.64,18.06,13.97,23.35l16.9,7.92c19.43,9.03,25.9,33.04,25.9,64.82,0,34.69-9.74,66.77-36.21,69.36-28.71,2.81-42.43-23.5-42.43-74.65Z"/><path class="cls-1" d="M145.03,484.33v-169.47l-28.33-1.43v-43.8l73.38,6.4v41.11l-26.16-1.32v166.72l-18.89,1.8Z"/><path class="cls-1" d="M194.07,479.66v-203.28l35.04,3.06c17.35,1.51,26.76,23.54,26.76,60.8,0,31.24-5.69,49.95-18.02,53.06v2.92c6.25,5.08,9.24,15.12,12.01,29.72l8.94,47.57-18.56,1.77-8.6-44.63c-3.3-16.88-5.51-24.17-13.43-23.93l-6.79,.21v71.09l-17.34,1.65Zm17.34-109.78l18.47,.06c7.64,.03,10.13-6.07,10.13-25.27,0-18.62-2.49-25.14-10.13-25.53l-18.47-.93v51.67Z"/><path class="cls-1" d="M261.8,377.75c0-59.56,12.5-97.19,32.34-95.41s30.31,39.16,30.31,95.16c0,56-11.21,93.53-30.31,95.4-19.85,1.94-32.34-35.59-32.34-95.15Zm47.77-.19c0-42.7-4.36-54.61-15.43-55.17s-16.02,11.25-16.02,55.3c0,44.04,4.7,55.83,16.02,55.17s15.43-12.6,15.43-55.3Z"/><path class="cls-1" d="M330.99,466.64v-178.31l14.25,1.24,18.68,88.04,4.71,23.01,.83-.02-.17-23.01v-85.92s12.35,1.08,12.35,1.08v169.08l-13.19,1.25-17.71-80.98-5.68-26.97-.88-.02,.17,27.04v83.21l-13.37,1.27Z"/><path class="cls-1" d="M387.37,377.26c0-52.42,9.69-85.65,25.44-84.23,14.85,1.34,22.63,25.33,22.63,63.13v1.19l-11.62-.22v-.96c0-20.23-3.05-27.37-11.24-27.79-8.82-.45-12.55,9.76-12.55,48.84,0,39.82,3.96,49.73,13.61,49.16,7.96-.47,11.44-5,11.44-24.25l-13.72,.44v-30.53s24.22,.04,24.22,.04v84.61s-10.13,.96-10.13,.96v-24.52l-.44,.03c-1.48,12.39-5.42,27.47-14.41,28.35-14.89,1.46-23.24-30.58-23.24-84.25Z"/></g></g><g><path class="cls-1" d="M453.65,456.21v-156.43s20.59-1.89,20.59-1.89c9.25-.85,14.31,11.1,14.31,39.33,0,19.47-2.96,32.14-8.77,34.84v2.41c7.06,1.93,10.56,18.52,10.56,40.47,0,27.56-5.15,44.37-15.07,43.4l-21.61-2.11Zm9.68-31.38l12,.71c3.52,.21,5.46-2.07,5.46-17.19,0-15.6-1.87-18.03-5.46-18.09l-12-.21v34.78Zm0-63.57l10.67-.18c3.57-.06,5.11-2.96,5.11-15.65,0-12.93-1.6-15.48-5.11-15.29l-10.67,.57v30.55Z"/><path class="cls-1" d="M495.26,395.83v-99.5s9.68-.89,9.68-.89v100.42c0,23.81,2.34,31.89,10.08,32.35,7.8,.46,10.24-7.51,10.24-31.88v-102.73s11.61-1.07,11.61-1.07v104.29c0,43.15-7.28,69.29-21.29,67.88-13.58-1.37-20.32-27.69-20.32-68.87Z"/><path class="cls-1" d="M542.67,464.57v-172.87s23.66-2.17,23.66-2.17c12.78-1.17,20.04,18.23,20.04,53.5,0,29.57-4.42,47.14-13.69,49.67v2.73c4.6,4.87,6.83,14.23,8.91,27.89l6.88,45.43-14.05-1.37-6.21-41.32c-2.33-15.32-3.88-21.92-9.35-22.08l-4.57-.14v61.87s-11.61-1.13-11.61-1.13Zm11.61-93.31l12.78-.06c5.53-.03,7.36-5.63,7.36-23.23,0-17.06-1.83-22.83-7.36-22.53l-12.78,.69v45.14Z"/><path class="cls-1" d="M590.65,378.4c0-57.09,10.25-95.21,27.88-96.89,17.83-1.69,27.68,25.69,27.68,71.62v1.61s-14.52,.3-14.52,.3v-1.49c0-23.75-3.62-31.76-13.14-31.24-9.84,.53-13.88,12.31-13.88,55.76,0,44.28,4.3,55.82,15.1,56.47,9.27,.56,13.44-4.28,13.44-26.94l-16.03-.52v-34.83s29.03-.09,29.03-.09v102.14s-12.58-1.24-12.58-1.24v-28.07s-.55-.04-.55-.04c-1.81,14.39-6.57,31.28-17.1,30.22-16.53-1.66-25.34-38.33-25.34-96.79Z"/><path class="cls-1" d="M654.93,475.46v-193.76s50.32-4.62,50.32-4.62v40.96s-35.8,1.92-35.8,1.92v38.31s33.87-.57,33.87-.57v40.61s-33.87-.73-33.87-.73v39.72s35.8,2.13,35.8,2.13v40.96s-50.32-4.92-50.32-4.92Z"/><path class="cls-1" d="M712.99,481.18v-205.24s33.53-3.08,33.53-3.08c18.25-1.68,28.66,21.44,28.66,63.74,0,35.47-6.34,56.52-19.61,59.52v3.13c6.56,5.84,9.75,17.06,12.74,33.43l9.86,54.54-20.12-1.97-8.85-49.46c-3.32-18.31-5.53-26.19-13.28-26.42l-6.47-.2v73.61s-16.45-1.61-16.45-1.61Zm16.45-110.92l18.13-.09c7.87-.04,10.48-6.74,10.48-27.75,0-20.38-2.61-27.25-10.48-26.82l-18.13,.97v53.69Z"/><path class="cls-1" d="M782.66,417.18v-4.36s17.42,.56,17.42,.56v4.19c0,24.81,3.37,32.07,18.7,33.02,11.01,.68,13.76-5,13.76-20.51,0-15.5-1.31-21.05-13.51-26.84l-14.96-7.41c-15.82-7.57-22.36-29.1-22.36-63.43,0-33.68,9.12-67.88,33.11-70.16,24.86-2.35,35.58,31.24,35.58,77.73v2.98s-19.35,.52-19.35,.52v-4.3c0-23.96-3.77-31.61-16.44-30.9-10.8,.61-14.15,7.13-14.15,21.14,0,14.34,2.23,17.63,12,22.45l15.21,7.55c18.54,9.11,24.98,34.85,24.98,68.99,0,37.27-9.63,69.74-34.36,67.26s-35.63-29.86-35.63-78.49Z"/></g></g></g></svg>